<svg width="800" height="176" viewBox="0 0 800 176" fill="none" xmlns="http://www.w3.org/2000/svg">
<rect width="800" height="175.182" rx="10" fill="url(#paint0_linear_149_2)"/>
<path d="M49.9164 71.1406C56.7367 71.1406 61.7641 74.5508 61.7641 79.7188C61.7641 84.4824 57.6684 87.6641 51.85 88.2266V94.0625H64.5063V97.2617H35.4672V94.0625H47.9828V88.2266C42.1996 87.6641 38.1039 84.4824 38.1391 79.7188C38.1039 74.5508 43.1313 71.1406 49.9164 71.1406ZM49.9164 74.3047C45.2758 74.2695 41.9359 76.3789 41.9711 79.7188C41.9359 83.1641 45.2758 85.2031 49.9164 85.2031C54.6273 85.2031 57.932 83.1641 57.932 79.7188C57.932 76.3789 54.6273 74.2695 49.9164 74.3047ZM94.0445 76.2031V79.332H72.107V69.7695H75.9391V76.2031H94.0445ZM97.3844 81.7578V84.8867H68.3453V81.7578H97.3844ZM93.8336 87.1016V95.2227H75.7633V97.6836H94.8883V100.742H71.8258V92.375H89.9664V90.125H71.7906V87.1016H93.8336ZM111.595 71.5625C116.622 71.5273 120.313 74.7266 120.348 79.2266C120.313 83.7617 116.622 86.9258 111.595 86.9258C106.602 86.9258 102.876 83.7617 102.876 79.2266C102.876 74.7266 106.602 71.5273 111.595 71.5625ZM111.595 74.9375C108.817 74.9375 106.743 76.5898 106.743 79.2266C106.743 81.8984 108.817 83.5156 111.595 83.5156C114.407 83.5156 116.516 81.8984 116.516 79.2266C116.516 76.5898 114.407 74.9375 111.595 74.9375ZM127.766 69.3477V101.164H123.864V69.3477H127.766ZM101.434 91.3203C107.165 91.3203 115.11 91.25 121.966 90.2656L122.282 93.1133C115.145 94.4844 107.516 94.5195 101.927 94.5195L101.434 91.3203ZM236.448 98.2812C234.937 98.2812 233.706 97.0508 233.706 95.5391C233.706 94.0625 234.937 92.832 236.448 92.832C237.89 92.832 239.155 94.0625 239.155 95.5391C239.155 97.0508 237.89 98.2812 236.448 98.2812ZM236.448 84.6406C234.937 84.6406 233.706 83.4102 233.706 81.8984C233.706 80.4219 234.937 79.1914 236.448 79.1914C237.89 79.1914 239.155 80.4219 239.155 81.8984C239.155 83.4102 237.89 84.6406 236.448 84.6406ZM283.537 87.8398V90.9336H270.88V101.129H267.013V90.9336H254.498V87.8398H283.537ZM261.88 70.6133V74.5156H276.084V70.6133H280.021V84.5352H258.013V70.6133H261.88ZM261.88 81.3711H276.084V77.6094H261.88V81.3711ZM298.837 74.9727C298.802 79.1562 301.438 83.1289 306.43 84.7461L304.391 87.8398C300.858 86.6445 298.362 84.2539 296.973 81.1953C295.55 84.5703 292.93 87.207 289.239 88.5078L287.059 85.4141C292.298 83.7266 294.899 79.4375 294.899 74.9375V71.3164H298.837V74.9727ZM312.513 69.3477V78.7344H316.942V82.0391H312.513V92.6914H308.61V69.3477H312.513ZM313.778 97.332V100.496H292.157V90.4062H296.165V97.332H313.778ZM355.769 69.3477V77.082H360.198V80.2812H355.769V87.9805H351.866V69.3477H355.769ZM346.98 71.5273C346.98 79.8945 341.53 85.8008 332.144 88.4727L330.597 85.3086C337.804 83.3398 342.075 79.4551 342.761 74.6914H332.038V71.5273H346.98ZM345.503 88.3672C351.937 88.3672 356.12 90.8281 356.12 94.7305C356.12 98.7031 351.937 101.094 345.503 101.094C339.105 101.094 334.851 98.7031 334.886 94.7305C334.851 90.8281 339.105 88.3672 345.503 88.3672ZM345.503 91.4258C341.32 91.4258 338.718 92.6211 338.753 94.7305C338.718 96.8047 341.32 98.0352 345.503 98.0352C349.687 98.0352 352.288 96.8047 352.288 94.7305C352.288 92.6211 349.687 91.4258 345.503 91.4258ZM375.358 76.9766C375.358 82.8828 378.17 88.6836 383.233 90.8984L380.877 94.0273C377.274 92.2695 374.743 88.8945 373.389 84.7461C372 89.123 369.416 92.7617 365.76 94.625L363.299 91.4609C368.467 89.0352 371.35 82.918 371.385 76.9766V71.9141H375.358V76.9766ZM390.264 69.3477V101.164H386.397V82.7773H379.717V79.6133H386.397V69.3477H390.264ZM421.947 71.2812V74.1289C421.947 77.0996 421.947 80.3516 421.103 84.8516H425.498V88.0156H412.877V101.164H408.939V88.0156H396.529V84.8516H417.13C418.009 80.5273 418.045 77.293 418.045 74.4453H399.939V71.2812H421.947Z" fill="black"/>
<path d="M145.851 98V72.5469H155.413C161.249 72.5469 164.378 76.0977 164.378 80.9844C164.378 85.8711 161.214 89.3867 155.343 89.3867H150.421V98H145.851ZM150.421 85.625H154.71C158.155 85.625 159.702 83.6914 159.702 80.9844C159.702 78.2422 158.155 76.3789 154.71 76.3789H150.421V85.625ZM169.659 98V78.9102H174.159V98H169.659ZM171.944 76.2031C170.538 76.2031 169.342 75.1133 169.342 73.7422C169.342 72.4062 170.538 71.3164 171.944 71.3164C173.385 71.3164 174.545 72.4062 174.545 73.7422C174.545 75.1133 173.385 76.2031 171.944 76.2031ZM188.58 98.3867C182.884 98.3867 179.439 94.3086 179.439 88.543C179.439 82.707 182.99 78.6641 188.58 78.6641C193.22 78.6641 196.455 81.3711 196.771 85.4844H192.482C192.13 83.6562 190.795 82.25 188.615 82.25C185.838 82.25 183.974 84.6055 183.974 88.4375C183.974 92.375 185.802 94.7305 188.615 94.7305C190.619 94.7305 192.095 93.5703 192.482 91.4961H196.771C196.42 95.5391 193.361 98.3867 188.58 98.3867ZM201.946 98V72.5469H206.446V86.5742H206.763L213.618 78.9102H218.856L211.473 87.1367L219.313 98H213.97L208.098 89.8086L206.446 91.5664V98H201.946Z" fill="white"/>
<line x1="735.886" y1="122.666" x2="758.909" y2="86.1662" stroke="white" stroke-width="5"/>
<line y1="-2.5" x2="43.1545" y2="-2.5" transform="matrix(0.533503 0.845798 0.845798 -0.533503 738 51)" stroke="white" stroke-width="5"/>
<defs>
<linearGradient id="paint0_linear_149_2" x1="3.72529e-07" y1="87.5912" x2="800" y2="87.5912" gradientUnits="userSpaceOnUse">
<stop stop-color="#130EDE" stop-opacity="0.3"/>
<stop offset="1" stop-color="#130EDE" stop-opacity="0.7"/>
</linearGradient>
</defs>
</svg>
